<svg xmlns="http://www.w3.org/2000/svg" viewBox="0 0 600.64 587.46"><defs><style>.cls-1{fill:#20b78a;}.cls-2{fill:#0d9972;}.cls-3{fill:#fff;}</style></defs><title>ambul</title><g id="Layer_2" data-name="Layer 2"><g id="Layer_1-2" data-name="Layer 1"><ellipse class="cls-1" cx="300.32" cy="293.73" rx="300.32" ry="293.73"/><rect class="cls-2" x="177.84" y="212.42" width="145.11" height="116.89"/><polygon class="cls-3" points="276.42 258.15 253.57 258.15 253.57 235.8 240.03 235.8 240.03 258.15 217.19 258.15 217.19 271.39 240.03 271.39 240.03 293.73 253.57 293.73 253.57 271.39 276.42 271.39 276.42 258.15"/><path class="cls-2" d="M313.15,587.18c144.51-5.94,262.62-111.74,284-248.68L432.11,177.05l-13.94,9.24L372,141.17,316.19,161l56.65,55.41L111.35,389.8Z"/><path class="cls-3" d="M432.11,177.05l-296.93,3.58c-22.34,0-34.76-.6-34.76,21.24V361.59c0,21.85,5.59,27.31,27.93,27.31l2,0c3.47-22.86,23.56-40.41,47.89-40.41,24.59,0,44.86,17.93,48,41.14l144.12,1.11c2.64-23.75,23.19-42.25,48.18-42.25,25.24,0,46,18.88,48.25,43l5.95.05c22.33,0,22.85-4.3,22.85-12.58V259C466,221.73,466,221.73,432.11,177.05ZM246.8,317.11c-29.55,0-53.51-23.43-53.51-52.34s24-52.35,53.51-52.35,53.52,23.44,53.52,52.35S276.36,317.11,246.8,317.11Zm126.92-59.79V191.94H427l46.54,65.38Z"/><path class="cls-3" d="M418.14,359.11c-22,0-39.76,17.41-39.76,38.89s17.8,38.9,39.76,38.9,39.77-17.41,39.77-38.9S440.11,359.11,418.14,359.11Zm0,53.17A14.28,14.28,0,1,1,432.74,398,14.43,14.43,0,0,1,418.14,412.28Z"/><path class="cls-3" d="M177.84,359.11c-22,0-39.76,17.41-39.76,38.89s17.8,38.9,39.76,38.9,39.77-17.41,39.77-38.9S199.81,359.11,177.84,359.11Zm0,53.17A14.28,14.28,0,1,1,192.44,398,14.43,14.43,0,0,1,177.84,412.28Z"/><path class="cls-3" d="M316.19,161.12c0-16.8,13.92-30.42,31.09-30.42s31.1,13.62,31.1,30.42"/></g></g></svg>