<svg xmlns="http://www.w3.org/2000/svg" xmlns:xlink="http://www.w3.org/1999/xlink" viewBox="0 0 1366 713.21"><defs><style>.cls-1{fill:url(#linear-gradient);}</style><linearGradient id="linear-gradient" x1="877.42" y1="206.14" x2="291.04" y2="611.09" gradientUnits="userSpaceOnUse"><stop offset="0" stop-color="#0098ff"/><stop offset="1" stop-color="#11c0ff"/></linearGradient></defs><title>bg</title><g id="Layer_2" data-name="Layer 2"><g id="Layer_1-2" data-name="Layer 1"><path class="cls-1" d="M69.54,649.5c45.67,0,89.6,40.88,133.37,34.6,12.94-1.86,25-9.25,37.18-15.23C296,641.45,360,643.47,414.86,674.39c9.87,5.56,19.79,12.13,30.53,12.77,13.19.79,25.56-7.43,37.73-14.12,55-30.19,118.86-31.27,174.39-3,11.73,6,23.39,13.31,36,14.36,16.85,1.4,32.83-8.62,48.69-16.22,60.9-29.19,131.05-23.36,188.65,15.65,12.21,8.28,24.58,18.22,38.33,18.43,10.18.15,19.89-5.11,29.51-9.46,52.22-23.61,111-21.5,162.11,5.83,10.65,5.68,21.19,12.49,32.62,14.13,23.45,3.37,43.38-14.77,64.42-24.79,21.56-10.27,44.79-11.45,67.66-11.45a196.41,196.41,0,0,1,40.54,4.25V283.5S1281,139,1010,139,683,0,683,0H0V662.18A197.8,197.8,0,0,1,69.54,649.5Z"/></g></g></svg>