<svg xmlns="http://www.w3.org/2000/svg" xmlns:xlink="http://www.w3.org/1999/xlink" viewBox="0 0 1366.5 768"><defs><style>.cls-1{fill:url(#linear-gradient);}</style><linearGradient id="linear-gradient" x1="871.04" y1="254.14" x2="268.16" y2="670.48" gradientUnits="userSpaceOnUse"><stop offset="0" stop-color="#0098ff"/><stop offset="1" stop-color="#11c0ff"/></linearGradient></defs><title>bg2</title><g id="Layer_2" data-name="Layer 2"><g id="Layer_1-2" data-name="Layer 1"><path class="cls-1" d="M1010,139C739,139,683,0,683,0H0V768H.57c0-1.33-.07-2.66-.07-4A122.51,122.51,0,0,1,123,641.5c22.11,0,43.37,15.11,64.56,12.79,6.27-.69,12.1-3.42,18-5.63a114.71,114.71,0,0,1,84.61,2c4.78,2,9.58,4.48,14.78,4.72,6.39.29,12.37-2.75,18.27-5.22a113.89,113.89,0,0,1,84.42-1.09c5.68,2.21,11.33,4.92,17.41,5.3,8.16.52,15.89-3.18,23.57-6A115.25,115.25,0,0,1,540,654.2c5.91,3.06,11.9,6.74,18.55,6.81,4.93.06,9.63-1.89,14.29-3.49a112.6,112.6,0,0,1,78.48,2.15c5.15,2.1,10.26,4.62,15.79,5.22,11.35,1.25,21-5.46,31.19-9.16,10.43-3.79,21.68-4.23,32.75-4.23A122.5,122.5,0,0,1,853.35,768H1366l.5-440.5S1281,139,1010,139Z"/></g></g></svg>