<svg xmlns="http://www.w3.org/2000/svg" viewBox="0 0 601.2 601.1"><defs><style>.cls-1{fill:#e73d5a;}.cls-2{fill:#b93149;}.cls-3{fill:#fff;}</style></defs><title>heart</title><g id="Layer_2" data-name="Layer 2"><g id="Layer_2-2" data-name="Layer 2"><ellipse class="cls-1" cx="300.6" cy="300.55" rx="300.6" ry="300.55"/><path class="cls-2" d="M189.84,378.71,396.58,585.42C507.74,548,589.79,447.27,600,326.14L421.21,147.37Z"/><rect class="cls-2" x="159.9" y="222.87" width="183.8" height="139.51" transform="translate(-117.82 181.2) rotate(-32.51)"/><path class="cls-3" d="M221.38,296.41c8.08-14.16,8.42-29.57,22.48-30.33,19.07-1,20.23,42.69,29.22,42.69,7.7,0,13.48-70.22,32.58-70.22,23,0,19.11,80.89,31.47,80.33,11.24-.51,12.91-65.52,27.52-64.93,16.88.68,11.8,46.6,25.86,45.27,0,0,54.5,1.79,65.17,1.12a28.27,28.27,0,0,0,3.3-.57c6-17.92,9.21-38.89,6.81-64-1.72-17.93-5.08-53-33.72-77.53-2.66-2.28-43.23-35.9-87.65-18-28.44,11.48-40.76,36.94-43.82,43.82-3.07-6.88-15.39-32.34-43.83-43.82-44.42-17.92-85,15.7-87.65,18-28.63,24.54-32,59.6-33.71,77.53-2.28,23.79.47,43.85,5.88,61.13C158.86,297.93,221.38,296.41,221.38,296.41Z"/><path class="cls-3" d="M451.75,315.51c-6-1.42-71.92-1.12-71.92-1.12-9.12.36-4.76-23.62-14.06-23.44-10.69.2-11.4,71.6-28.17,71.6-19.19,0-22.38-86.36-33.06-86.36-11.25,0-12.66,60.71-29,60.15-19.1-.66-19-42.22-30-41-10.67,1.12-8.42,18-15.17,17.41L152.27,315c-1,.07-2.36.3-3.82.42C157.07,334,168.32,348.93,178,362c37.66,50.76,91.87,89.46,122.6,104.1,30.72-14.64,84.94-53.34,122.6-104.1,9.62-13,20.78-27.84,29.38-46.25Z"/></g></g></svg>