<?xml version="1.0" standalone="no"?><!-- Generator: Gravit.io --><svg xmlns="http://www.w3.org/2000/svg" xmlns:xlink="http://www.w3.org/1999/xlink" style="isolation:isolate" viewBox="0 0 360 640" width="360" height="640"><defs><clipPath id="_clipPath_49Y5rJMYyLmiUal0ixRfHfjIlIuPVxGr"><rect width="360" height="640"/></clipPath></defs><g clip-path="url(#_clipPath_49Y5rJMYyLmiUal0ixRfHfjIlIuPVxGr)"><linearGradient id="_lgradient_34" x1="-0.013333333333333421" y1="1.0693333333333335" x2="1.6400000000000001" y2="-0.10399999999999987" gradientTransform="matrix(-75,0,0,150,75,-2)" gradientUnits="userSpaceOnUse"><stop offset="0%" stop-opacity="1" style="stop-color:rgb(64,226,205)"/><stop offset="100%" stop-opacity="1" style="stop-color:rgb(61,161,224)"/></linearGradient><path d=" M 0 148 C 41.394 148 75 114.394 75 73 C 75 31.606 41.394 -2 0 -2 L 0 73 L 0 148 Z " fill="url(#_lgradient_34)" fill-opacity="0.75"/><linearGradient id="_lgradient_35" x1="-0.013333333333333421" y1="1.0693333333333335" x2="1.6400000000000001" y2="-0.10399999999999987" gradientTransform="matrix(-75,0,0,150,75,206)" gradientUnits="userSpaceOnUse"><stop offset="0%" stop-opacity="1" style="stop-color:rgb(64,226,205)"/><stop offset="100%" stop-opacity="1" style="stop-color:rgb(61,161,224)"/></linearGradient><path d=" M 0 356 C 41.394 356 75 322.394 75 281 C 75 239.606 41.394 206 0 206 L 0 281 L 0 356 Z " fill="url(#_lgradient_35)" fill-opacity="0.75"/><linearGradient id="_lgradient_36" x1="-0.013333333333333421" y1="1.0693333333333335" x2="1.6400000000000001" y2="-0.10399999999999987" gradientTransform="matrix(-46.354,0,0,92.707,46.354,495.293)" gradientUnits="userSpaceOnUse"><stop offset="0%" stop-opacity="1" style="stop-color:rgb(64,226,205)"/><stop offset="100%" stop-opacity="1" style="stop-color:rgb(61,161,224)"/></linearGradient><path d=" M 0 588 C 25.583 588 46.354 567.23 46.354 541.646 C 46.354 516.063 25.583 495.293 0 495.293 L 0 541.646 L 0 588 Z " fill="url(#_lgradient_36)" fill-opacity="0.75"/><linearGradient id="_lgradient_37" x1="-0.013333333333333421" y1="1.0693333333333335" x2="1.6400000000000001" y2="-0.10399999999999987" gradientTransform="matrix(-46.354,0,0,92.707,46.354,434.293)" gradientUnits="userSpaceOnUse"><stop offset="0%" stop-opacity="1" style="stop-color:rgb(64,226,205)"/><stop offset="100%" stop-opacity="1" style="stop-color:rgb(61,161,224)"/></linearGradient><path d=" M 0 527 C 25.583 527 46.354 506.23 46.354 480.646 C 46.354 455.063 25.583 434.293 0 434.293 L 0 480.646 L 0 527 Z " fill="url(#_lgradient_37)" fill-opacity="0.75"/><linearGradient id="_lgradient_38" x1="-0.013333333333333421" y1="1.0693333333333335" x2="1.6400000000000001" y2="-0.10399999999999987" gradientTransform="matrix(75,0,0,-150,285,642)" gradientUnits="userSpaceOnUse"><stop offset="0%" stop-opacity="1" style="stop-color:rgb(64,226,205)"/><stop offset="100%" stop-opacity="1" style="stop-color:rgb(61,161,224)"/></linearGradient><path d=" M 360 492 C 318.606 492 285 525.606 285 567 C 285 608.394 318.606 642 360 642 L 360 567 L 360 492 Z " fill="url(#_lgradient_38)" fill-opacity="0.75"/><linearGradient id="_lgradient_39" x1="-0.013333333333333421" y1="1.0693333333333335" x2="1.6400000000000001" y2="-0.10399999999999987" gradientTransform="matrix(75,0,0,-150,285,420)" gradientUnits="userSpaceOnUse"><stop offset="0%" stop-opacity="1" style="stop-color:rgb(64,226,205)"/><stop offset="100%" stop-opacity="1" style="stop-color:rgb(61,161,224)"/></linearGradient><path d=" M 360 270 C 318.606 270 285 303.606 285 345 C 285 386.394 318.606 420 360 420 L 360 345 L 360 270 Z " fill="url(#_lgradient_39)" fill-opacity="0.75"/><linearGradient id="_lgradient_40" x1="-0.013333333333333421" y1="1.0693333333333335" x2="1.6400000000000001" y2="-0.10399999999999987" gradientTransform="matrix(46.354,0,0,-92.707,313.646,92.707)" gradientUnits="userSpaceOnUse"><stop offset="0%" stop-opacity="1" style="stop-color:rgb(64,226,205)"/><stop offset="100%" stop-opacity="1" style="stop-color:rgb(61,161,224)"/></linearGradient><path d=" M 360 0 C 334.417 0 313.646 20.77 313.646 46.354 C 313.646 71.937 334.417 92.707 360 92.707 L 360 46.354 L 360 0 Z " fill="url(#_lgradient_40)" fill-opacity="0.75"/></g></svg>