<?xml version="1.0" standalone="no"?><!-- Generator: Gravit.io --><svg xmlns="http://www.w3.org/2000/svg" xmlns:xlink="http://www.w3.org/1999/xlink" style="isolation:isolate" viewBox="0 0 360 640" width="360" height="640"><linearGradient id="_lgradient_0" x1="-0.3698489317958344" y1="0.22829092920353983" x2="1.2941919191919193" y2="0.7414772727272727" gradientTransform="matrix(360,0,0,640,0,0)" gradientUnits="userSpaceOnUse"><stop offset="1.7391304347826086%" stop-opacity="1" style="stop-color:rgb(61,160,224)"/><stop offset="100%" stop-opacity="1" style="stop-color:rgb(64,223,205)"/></linearGradient><path d=" M 0 159.12 C 1.656 159.04 3.323 159 5 159 C 60.192 159 105 202.544 105 256.177 C 105 309.811 60.192 353.355 5 353.355 C 3.323 353.355 1.656 353.315 0 353.235 L 0 159.12 Z  M 360 594.355 L 360 594.355 C 304.808 594.355 260 550.811 260 497.177 L 260 497.177 L 260 497.177 L 260 497.177 L 260 497.177 L 260 497.177 C 260 443.544 304.808 400 360 400 L 360 594.355 Z  M 0 542.823 L 0 542.823 C 55.192 542.823 100 586.366 100 640 L 0 640 L 0 542.823 Z  M 360 194.355 L 360 194.355 C 304.808 194.355 260 150.811 260 97.177 L 260 97.177 L 260 97.177 L 260 97.177 C 260 43.544 304.808 0 360 0 L 360 0 L 360 194.355 Z  M 360 353.355 L 360 353.355 C 325.889 353.355 298.195 326.443 298.195 293.295 L 298.195 293.295 L 298.195 293.295 C 298.195 260.146 325.889 233.234 360 233.234 L 360 353.355 Z  M 0 392 L 0 392 C 34.111 392 61.805 418.912 61.805 452.06 C 61.805 485.208 34.111 512.12 0 512.12 L 0 392 Z  M 61.805 0 L 61.805 0 C 61.805 33.148 34.111 60.06 0 60.06 L 0 0 L 61.805 0 Z " fill-rule="evenodd" fill="url(#_lgradient_0)"/></svg>