<?xml version="1.0" standalone="no"?><!-- Generator: Gravit.io --><svg xmlns="http://www.w3.org/2000/svg" xmlns:xlink="http://www.w3.org/1999/xlink" style="isolation:isolate" viewBox="0 0 560 315" width="560" height="315"><defs><clipPath id="_clipPath_jIJDfz5x4fKjxbkoMMvpON4wTF473ThK"><rect width="560" height="315"/></clipPath></defs><g clip-path="url(#_clipPath_jIJDfz5x4fKjxbkoMMvpON4wTF473ThK)"><g filter="url(#vHxPF7zocdsT6iEgQDUXVXG4ycAgNUnf)"><linearGradient id="_lgradient_0" x1="0.017835999999999963" y1="0.17154599999999987" x2="1.079916973451327" y2="0.767491038793464" gradientTransform="matrix(260.278,0,0,210.5,155.922,49.5)" gradientUnits="userSpaceOnUse"><stop offset="0%" stop-opacity="1" style="stop-color:rgb(80,227,208)"/><stop offset="98.26086956521739%" stop-opacity="1" style="stop-color:rgb(60,157,225)"/></linearGradient><path d=" M 406.222 129.676 C 412.657 145.055 416.199 161.937 416.199 179.64 C 416.199 209.953 405.812 237.861 388.415 260 L 388.415 260 C 364.596 229.662 327.587 210.172 286.062 210.172 C 244.536 210.172 207.525 229.662 183.706 260 C 166.309 237.861 155.922 209.953 155.922 179.64 C 155.922 107.814 214.236 49.5 286.062 49.5 C 315.44 49.5 342.558 59.256 364.335 75.721 C 354.128 81.697 347.277 92.779 347.277 105.461 C 347.277 124.493 362.706 139.922 381.738 139.922 C 391.323 139.922 399.994 136.009 406.222 129.676 Z  M 236.347 144.073 C 236.347 116.637 258.623 94.361 286.062 94.361 C 313.498 94.361 335.774 116.637 335.774 144.073 C 335.774 171.51 313.498 193.786 286.062 193.786 C 258.623 193.786 236.347 171.51 236.347 144.073 L 236.347 144.073 Z " fill-rule="evenodd" fill="url(#_lgradient_0)"/></g><defs><filter id="vHxPF7zocdsT6iEgQDUXVXG4ycAgNUnf" x="-200%" y="-200%" width="400%" height="400%" filterUnits="objectBoundingBox" color-interpolation-filters="sRGB"><feGaussianBlur xmlns="http://www.w3.org/2000/svg" in="SourceGraphic" stdDeviation="2.146804531419514"/><feOffset xmlns="http://www.w3.org/2000/svg" dx="0" dy="5" result="pf_100_offsetBlur"/><feFlood xmlns="http://www.w3.org/2000/svg" flood-color="#000000" flood-opacity="0.2"/><feComposite xmlns="http://www.w3.org/2000/svg" in2="pf_100_offsetBlur" operator="in" result="pf_100_dropShadow"/><feBlend xmlns="http://www.w3.org/2000/svg" in="SourceGraphic" in2="pf_100_dropShadow" mode="normal"/></filter></defs><g><linearGradient id="_lgradient_1" x1="-0.8836060092824434" y1="-0.09140751820163262" x2="2.7726947187828435" y2="2.2851879550408056" gradientTransform="matrix(32.82,0,0,32.82,365,91)" gradientUnits="userSpaceOnUse"><stop offset="1.7391304347826086%" stop-opacity="1" style="stop-color:rgb(77,218,210)"/><stop offset="97.3913043478261%" stop-opacity="1" style="stop-color:rgb(60,159,224)"/></linearGradient><path d=" M 386.333 102.487 L 386.333 91 L 376.487 91 L 376.487 102.487 L 365 102.487 L 365 112.333 L 376.487 112.333 L 376.487 123.82 L 386.333 123.82 L 386.333 112.333 L 397.82 112.333 L 397.82 102.487 L 386.333 102.487 Z " fill-rule="evenodd" fill="url(#_lgradient_1)"/></g></g></svg>