<?xml version="1.0" standalone="no"?><!-- Generator: Gravit.io --><svg xmlns="http://www.w3.org/2000/svg" xmlns:xlink="http://www.w3.org/1999/xlink" style="isolation:isolate" viewBox="38 27 161.609 137.969" width="161.609" height="137.969"><g filter="url(#cjP3lVuDHcgUCTkKP2pH26i1XjBeKlN8)"><linearGradient id="_lgradient_3" x1="0.017835999999999966" y1="0.17154599999999984" x2="1.0799169734513274" y2="0.9084161327433627" gradientTransform="matrix(123.609,0,0,99.969,57,41)" gradientUnits="userSpaceOnUse"><stop offset="0%" stop-opacity="1" style="stop-color:rgb(80,227,208)"/><stop offset="98.26086956521739%" stop-opacity="1" style="stop-color:rgb(60,157,225)"/></linearGradient><path d=" M 167.414 140.969 C 175.676 130.455 180.609 117.201 180.609 102.805 C 180.609 68.694 152.916 41 118.805 41 C 84.694 41 57 68.694 57 102.805 C 57 117.201 61.933 130.455 70.195 140.969 C 81.507 126.561 99.084 117.305 118.805 117.305 C 138.526 117.305 156.102 126.561 167.414 140.969 Z  M 95.195 85.914 C 95.195 72.884 105.774 62.305 118.805 62.305 C 131.835 62.305 142.414 72.884 142.414 85.914 C 142.414 98.944 131.835 109.523 118.805 109.523 C 105.774 109.523 95.195 98.944 95.195 85.914 Z " fill-rule="evenodd" fill="url(#_lgradient_3)"/></g><defs><filter id="cjP3lVuDHcgUCTkKP2pH26i1XjBeKlN8" x="-200%" y="-200%" width="400%" height="400%" filterUnits="objectBoundingBox" color-interpolation-filters="sRGB"><feGaussianBlur xmlns="http://www.w3.org/2000/svg" in="SourceGraphic" stdDeviation="2.146804531419514"/><feOffset xmlns="http://www.w3.org/2000/svg" dx="0" dy="5" result="pf_100_offsetBlur"/><feFlood xmlns="http://www.w3.org/2000/svg" flood-color="#000000" flood-opacity="0.2"/><feComposite xmlns="http://www.w3.org/2000/svg" in2="pf_100_offsetBlur" operator="in" result="pf_100_dropShadow"/><feBlend xmlns="http://www.w3.org/2000/svg" in="SourceGraphic" in2="pf_100_dropShadow" mode="normal"/></filter></defs></svg>