<?xml version="1.0" standalone="no"?><!-- Generator: Gravit.io --><svg xmlns="http://www.w3.org/2000/svg" xmlns:xlink="http://www.w3.org/1999/xlink" style="isolation:isolate" viewBox="131.76 13.449 296.479 302.501" width="296.479" height="302.501"><g filter="url(#R0qoEikpL5mfzMx54AXxIBoPuaeuwnLk)"><linearGradient id="_lgradient_0" x1="0.16866054778074663" y1="0.1161263314531582" x2="1.109261756577373" y2="0.9072018202647151" gradientTransform="matrix(242.079,0,0,248.101,158.96,33.449)" gradientUnits="userSpaceOnUse"><stop offset="2.1739130434782608%" stop-opacity="1" style="stop-color:rgb(65,236,202)"/><stop offset="98.69565217391305%" stop-opacity="1" style="stop-color:rgb(59,124,236)"/></linearGradient><path d=" M 272.278 159.02 C 263.688 159.017 255.67 163.961 250.929 172.185 C 246.187 163.961 238.169 159.017 229.579 159.02 C 215.427 159.02 203.96 172.185 203.96 188.433 C 203.96 217.702 250.929 247.261 250.929 247.261 C 250.929 247.261 297.897 217.962 297.897 188.433 C 297.897 172.185 286.431 159.02 272.278 159.02 L 272.278 159.02 L 272.278 159.02 Z  M 344.929 33.45 C 372.613 33.452 396.158 53.645 400.379 81.005 C 404.6 108.365 388.235 134.715 361.839 143.06 C 359.927 143.296 358.053 143.77 356.259 144.47 L 356.259 144.47 L 355.899 144.62 C 345.893 148.621 339.766 158.784 340.899 169.5 C 340.899 169.95 340.999 170.43 341.089 170.93 L 341.089 171.09 C 341.159 171.49 341.229 171.84 341.309 172.17 C 348.639 210.275 331.273 248.883 297.897 268.679 C 264.522 288.474 222.315 285.2 192.392 260.494 C 162.468 235.789 151.263 194.965 164.383 158.446 C 177.502 121.926 212.124 97.565 250.929 97.55 C 254.162 97.548 257.393 97.718 260.609 98.06 C 261.682 98.319 262.771 98.506 263.869 98.62 C 264.479 98.68 265.109 98.72 265.769 98.73 L 266.339 98.73 C 276.754 98.748 286.005 92.078 289.279 82.19 C 289.939 80.199 290.342 78.133 290.479 76.04 C 293.471 64.028 300.339 53.336 310.019 45.62 C 319.923 37.693 332.243 33.398 344.929 33.45 L 344.929 33.45 L 344.929 33.45 Z  M 338.165 112.053 C 337.009 112.053 336.067 111.216 336.067 110.187 L 336.067 97.122 L 321.381 97.122 C 320.224 97.122 319.282 96.285 319.282 95.256 L 319.282 82.814 C 319.282 81.785 320.224 80.947 321.381 80.947 L 336.067 80.947 L 336.067 67.883 C 336.067 66.854 337.009 66.017 338.165 66.017 L 352.153 66.017 C 353.31 66.017 354.251 66.854 354.251 67.883 L 354.251 80.947 L 368.938 80.947 C 370.094 80.947 371.036 81.785 371.036 82.814 L 371.036 95.256 C 371.036 96.285 370.094 97.122 368.938 97.122 L 354.251 97.122 L 354.251 110.187 C 354.251 111.216 353.31 112.053 352.153 112.053 L 338.165 112.053 Z " fill-rule="evenodd" fill="url(#_lgradient_0)"/></g><defs><filter id="R0qoEikpL5mfzMx54AXxIBoPuaeuwnLk" x="-200%" y="-200%" width="400%" height="400%" filterUnits="objectBoundingBox" color-interpolation-filters="sRGB"><feGaussianBlur xmlns="http://www.w3.org/2000/svg" in="SourceGraphic" stdDeviation="3.0913985252441005"/><feOffset xmlns="http://www.w3.org/2000/svg" dx="0" dy="7.2" result="pf_100_offsetBlur"/><feFlood xmlns="http://www.w3.org/2000/svg" flood-color="#000000" flood-opacity="0.25"/><feComposite xmlns="http://www.w3.org/2000/svg" in2="pf_100_offsetBlur" operator="in" result="pf_100_dropShadow"/><feBlend xmlns="http://www.w3.org/2000/svg" in="SourceGraphic" in2="pf_100_dropShadow" mode="normal"/></filter></defs></svg>